<?xml version="1.0" encoding="UTF-8"?>

<svg xmlns="http://www.w3.org/2000/svg" viewBox="0 0 116 14" width="580" height="70" shape-rendering="crispEdges" style="image-rendering: pixelated">
  
  
  

  
  <g class="ink">
    <rect x="1" y="1" width="3" height="1"></rect>
    <rect x="0" y="2" width="1" height="5"></rect>
    <rect x="4" y="2" width="1" height="5"></rect>
    <rect x="1" y="7" width="3" height="1"></rect>
  </g>
  
  <g class="ink">
    <rect x="6" y="1" width="3" height="1"></rect>
    <rect x="6" y="2" width="1" height="6"></rect>
    <rect x="9" y="2" width="1" height="2"></rect>
    <rect x="6" y="4" width="3" height="1"></rect>
  </g>
  
  <g class="ink">
    <rect x="12" y="1" width="4" height="1"></rect>
    <rect x="12" y="2" width="1" height="6"></rect>
    <rect x="12" y="4" width="3" height="1"></rect>
    <rect x="12" y="7" width="4" height="1"></rect>
  </g>
  
  <g class="ink">
    <rect x="18" y="1" width="1" height="7"></rect>
    <rect x="22" y="1" width="1" height="7"></rect>
    <rect x="19" y="2" width="1" height="2"></rect>
    <rect x="20" y="3" width="1" height="2"></rect>
    <rect x="21" y="4" width="1" height="2"></rect>
  </g>

  
  
  <g class="brand">
    <rect x="30" y="1" width="3" height="1"></rect>
    <rect x="30" y="2" width="1" height="6"></rect>
    <rect x="33" y="2" width="1" height="2"></rect>
    <rect x="30" y="4" width="3" height="1"></rect>
    <rect x="33" y="5" width="1" height="2"></rect>
    <rect x="30" y="7" width="3" height="1"></rect>
  </g>
  
  <g class="brand">
    <rect x="37" y="1" width="3" height="1"></rect>
    <rect x="36" y="2" width="1" height="5"></rect>
    <rect x="40" y="2" width="1" height="5"></rect>
    <rect x="37" y="7" width="3" height="1"></rect>
  </g>
  
  <g class="brand">
    <rect x="43" y="1" width="3" height="1"></rect>
    <rect x="42" y="2" width="1" height="5"></rect>
    <rect x="46" y="2" width="1" height="5"></rect>
    <rect x="43" y="7" width="3" height="1"></rect>
  </g>
  
  <g class="brand">
    <rect x="49" y="1" width="4" height="1"></rect>
    <rect x="48" y="2" width="1" height="2"></rect>
    <rect x="49" y="4" width="3" height="1"></rect>
    <rect x="52" y="5" width="1" height="2"></rect>
    <rect x="48" y="7" width="4" height="1"></rect>
  </g>
  
  <g class="brand">
    <rect x="54" y="1" width="5" height="1"></rect>
    <rect x="56" y="2" width="1" height="6"></rect>
  </g>
</svg>