<?xml version="1.0" encoding="UTF-8"?>

<svg xmlns="http://www.w3.org/2000/svg" viewBox="0 0 16 16" width="256" height="256" shape-rendering="crispEdges" style="image-rendering: pixelated">

  
  <rect x="7" y="0" width="1" height="1" fill="#F26A4B"></rect>

  
  <rect x="7" y="1" width="1" height="1" fill="#1A1626"></rect>

  
  <rect x="3" y="2" width="1" height="1" fill="#1A1626"></rect>
  <rect x="4" y="2" width="8" height="1" fill="#1A1626"></rect>
  <rect x="12" y="2" width="1" height="1" fill="#1A1626"></rect>

  
  <rect x="2" y="3" width="1" height="1" fill="#1A1626"></rect>
  <rect x="3" y="3" width="1" height="1" fill="#FFFDF5"></rect>
  <rect x="4" y="3" width="8" height="1" fill="#E8E3D3"></rect>      
  <rect x="12" y="3" width="1" height="1" fill="#FFFDF5"></rect>
  <rect x="13" y="3" width="1" height="1" fill="#1A1626"></rect>

  
  <rect x="2" y="4" width="1" height="1" fill="#1A1626"></rect>
  <rect x="3" y="4" width="1" height="1" fill="#FFFDF5"></rect>
  <rect x="4" y="4" width="1" height="1" fill="#1A1626"></rect>      
  <rect x="5" y="4" width="1" height="1" fill="#2EC4F1"></rect>
  <rect x="6" y="4" width="1" height="1" fill="#1A1626"></rect>      
  <rect x="7" y="4" width="2" height="1" fill="#2EC4F1"></rect>
  <rect x="9" y="4" width="1" height="1" fill="#1A1626"></rect>      
  <rect x="10" y="4" width="1" height="1" fill="#2EC4F1"></rect>
  <rect x="11" y="4" width="1" height="1" fill="#1A1626"></rect>     
  <rect x="12" y="4" width="1" height="1" fill="#FFFDF5"></rect>
  <rect x="13" y="4" width="1" height="1" fill="#1A1626"></rect>

  
  <rect x="2" y="5" width="1" height="1" fill="#1A1626"></rect>
  <rect x="3" y="5" width="1" height="1" fill="#FFFDF5"></rect>
  <rect x="4" y="5" width="1" height="1" fill="#1A1626"></rect>
  <rect x="5" y="5" width="2" height="1" fill="#2EC4F1"></rect>
  <rect x="7" y="5" width="1" height="1" fill="#1A1626"></rect>       
  <rect x="8" y="5" width="1" height="1" fill="#1A1626"></rect>       
  <rect x="9" y="5" width="2" height="1" fill="#2EC4F1"></rect>
  <rect x="11" y="5" width="1" height="1" fill="#1A1626"></rect>
  <rect x="12" y="5" width="1" height="1" fill="#FFFDF5"></rect>
  <rect x="13" y="5" width="1" height="1" fill="#1A1626"></rect>

  
  <rect x="2" y="6" width="1" height="1" fill="#1A1626"></rect>
  <rect x="3" y="6" width="1" height="1" fill="#FFFDF5"></rect>
  <rect x="4" y="6" width="1" height="1" fill="#1A1626"></rect>
  <rect x="5" y="6" width="6" height="1" fill="#2EC4F1"></rect>
  <rect x="11" y="6" width="1" height="1" fill="#1A1626"></rect>
  <rect x="12" y="6" width="1" height="1" fill="#FFFDF5"></rect>
  <rect x="13" y="6" width="1" height="1" fill="#1A1626"></rect>

  
  <rect x="2" y="7" width="1" height="1" fill="#1A1626"></rect>
  <rect x="3" y="7" width="1" height="1" fill="#FFFDF5"></rect>
  <rect x="4" y="7" width="1" height="1" fill="#1A1626"></rect>
  <rect x="5" y="7" width="4" height="1" fill="#E8E3D3"></rect>
  <rect x="9" y="7" width="1" height="1" fill="#7BD86E"></rect>       
  <rect x="10" y="7" width="1" height="1" fill="#E8E3D3"></rect>
  <rect x="11" y="7" width="1" height="1" fill="#1A1626"></rect>
  <rect x="12" y="7" width="1" height="1" fill="#FFFDF5"></rect>
  <rect x="13" y="7" width="1" height="1" fill="#1A1626"></rect>

  
  <rect x="2" y="8" width="1" height="1" fill="#1A1626"></rect>
  <rect x="3" y="8" width="10" height="1" fill="#1A1626"></rect>
  <rect x="13" y="8" width="1" height="1" fill="#1A1626"></rect>

  
  <rect x="6" y="9" width="1" height="1" fill="#1A1626"></rect>
  <rect x="7" y="9" width="2" height="1" fill="#E8E3D3"></rect>
  <rect x="9" y="9" width="1" height="1" fill="#1A1626"></rect>

  
  <rect x="3" y="10" width="1" height="1" fill="#1A1626"></rect>      
  <rect x="4" y="10" width="1" height="1" fill="#F26A4B"></rect>      
  <rect x="5" y="10" width="1" height="1" fill="#1A1626"></rect>
  <rect x="6" y="10" width="1" height="1" fill="#1A1626"></rect>
  <rect x="7" y="10" width="2" height="1" fill="#FFFDF5"></rect>      
  <rect x="9" y="10" width="1" height="1" fill="#1A1626"></rect>

  
  <rect x="5" y="11" width="1" height="1" fill="#1A1626"></rect>
  <rect x="6" y="11" width="4" height="1" fill="#FFFDF5"></rect>
  <rect x="10" y="11" width="1" height="1" fill="#1A1626"></rect>

  
  <rect x="4" y="12" width="1" height="1" fill="#1A1626"></rect>
  <rect x="5" y="12" width="6" height="1" fill="#FFFDF5"></rect>
  <rect x="11" y="12" width="1" height="1" fill="#1A1626"></rect>

  
  <rect x="4" y="13" width="1" height="1" fill="#1A1626"></rect>
  <rect x="5" y="13" width="2" height="1" fill="#1A1626"></rect>      
  <rect x="7" y="13" width="2" height="1" fill="#FFFDF5"></rect>
  <rect x="9" y="13" width="2" height="1" fill="#1A1626"></rect>      
  <rect x="11" y="13" width="1" height="1" fill="#1A1626"></rect>

  
  <rect x="5" y="14" width="2" height="1" fill="#1A1626"></rect>
  <rect x="9" y="14" width="2" height="1" fill="#1A1626"></rect>

  
  <rect x="3" y="15" width="10" height="1" fill="#1A162614" opacity="0.08"></rect>
</svg>