<?xml version="1.0" encoding="UTF-8"?>

<svg xmlns="http://www.w3.org/2000/svg" viewBox="0 0 16 16" width="128" height="128" shape-rendering="crispEdges" style="image-rendering: pixelated">
  <rect x="1" y="3" width="14" height="10" fill="#FFC244"></rect>
  <rect x="1" y="2" width="14" height="1" fill="#1A1626"></rect>
  <rect x="1" y="13" width="14" height="1" fill="#1A1626"></rect>
  <rect x="0" y="3" width="1" height="10" fill="#1A1626"></rect>
  <rect x="15" y="3" width="1" height="10" fill="#1A1626"></rect>
  <rect x="1" y="3" width="14" height="2" fill="#FFD366"></rect>
  
  <rect x="5" y="6" width="3" height="1" fill="#1A1626"></rect>
  <rect x="6" y="7" width="1" height="3" fill="#1A1626"></rect>
  <rect x="4" y="10" width="1" height="1" fill="#1A1626"></rect>
  <rect x="5" y="11" width="2" height="1" fill="#1A1626"></rect>
  
  <rect x="9" y="6" width="3" height="1" fill="#1A1626"></rect>
  <rect x="8" y="7" width="1" height="1" fill="#1A1626"></rect>
  <rect x="9" y="8" width="3" height="1" fill="#1A1626"></rect>
  <rect x="11" y="9" width="1" height="2" fill="#1A1626"></rect>
  <rect x="8" y="11" width="3" height="1" fill="#1A1626"></rect>
</svg>